<svg width="90" height="39" viewBox="0 0 90 39" fill="none" xmlns="http://www.w3.org/2000/svg">
<g filter="url(#filter0_d)">
<path fill-rule="evenodd" clip-rule="evenodd" d="M85.458 12.0851C85.0914 10.9164 84.5812 9.85893 83.8639 8.93664C83.1465 8.01436 82.2698 7.34649 81.2336 6.84559C80.9387 6.68658 80.58 6.52756 80.2771 6.44806C80.2771 6.44806 80.1655 6.38445 80.0619 6.38445C80.0141 6.38445 79.9583 6.38445 79.9025 6.32879C79.8627 6.32879 79.8069 6.32879 79.8069 6.27314L79.0497 6.11412C78.4917 6.01871 77.7744 5.97101 76.9454 6.01871C75.718 6.07437 74.634 6.33675 73.6775 6.78199C72.6413 7.29084 71.7646 8.0064 71.0472 8.86509C70.3299 9.78737 69.8197 10.7971 69.4531 12.0215C69.1024 13.1823 68.943 14.5022 68.943 15.822C68.943 17.1975 69.1024 18.4696 69.4611 19.6384C69.8277 20.8071 70.3936 21.8646 71.0552 22.7392C71.5733 23.3514 72.1312 23.8523 72.8087 24.3134C73.1116 24.5201 73.3666 24.6712 73.6855 24.8223H73.7253C73.7253 24.8223 73.7731 24.8223 73.7731 24.87C73.8073 24.87 73.8232 24.8859 73.8379 24.9008C73.8506 24.9136 73.8625 24.9256 73.8847 24.9256C74.4028 25.18 74.9687 25.3232 75.5825 25.4345C77.3758 25.7843 78.9142 25.5378 78.9142 25.5378C79.7351 25.4345 80.5083 25.18 81.2256 24.87C82.3017 24.3611 83.1704 23.6535 83.8958 22.7869C84.6131 21.9282 85.1232 20.8548 85.4899 19.6861C85.8406 18.5173 86 17.2452 86 15.8697C86 14.5022 85.7928 13.2301 85.4819 12.0533L85.458 12.0851ZM73.4464 13.1983C73.6536 12.4032 73.9086 11.632 74.2673 11.0197C74.626 10.4155 75.0883 9.90664 75.5984 9.5568C76.1165 9.19902 76.7302 9.00025 77.3918 9.00025C78.0613 9.00025 78.6272 9.14336 79.1453 9.50115C79.6554 9.85098 80.0619 10.2962 80.4206 10.8687C80.7793 11.4809 81.0423 12.1408 81.2416 12.9518C81.4568 13.7628 81.5604 14.5817 81.5604 15.496V15.7981C81.5604 16.7125 81.4568 17.6268 81.3053 18.4378C81.0981 19.2567 80.843 19.9643 80.4844 20.5845C80.1257 21.1888 79.6634 21.642 79.1453 21.9997C78.6352 22.3575 78.0294 22.5086 77.3519 22.5086C76.6824 22.5086 76.0766 22.3496 75.5586 21.9997C75.0405 21.642 74.5782 21.1888 74.2195 20.5686C73.8529 19.9643 73.5978 19.2567 73.3906 18.4378C73.1913 17.6268 73.1355 16.7125 73.1355 15.7981C73.1913 14.9236 73.2949 14.0172 73.4543 13.2062L73.4464 13.1983ZM62.1999 25.7127L60.2072 27.9946L60 28.2013L60.2072 31H63.2839L66.5199 27.3904V15.9095L66.4243 15.0349L62.1999 17.2134V25.7127Z" fill="white"/>
<path fill-rule="evenodd" clip-rule="evenodd" d="M36.2789 5.22177L34.2657 3.00409L34 2.81535L34.2094 0L37.3097 0.0471846L40.6435 3.61749V15.2328L40.5469 15.8776L36.2789 13.6757V5.22177ZM64.8499 8.34382C65.5747 9.25606 66.09 10.302 66.4605 11.458L66.4766 11.4265C66.8389 12.5904 67 13.8487 67 15.2013C67 16.5618 66.8389 17.8201 66.4846 18.9761C66.1142 20.1321 65.5988 21.1938 64.8741 22.0431C64.1493 22.9003 63.2635 23.6002 62.1764 24.1035C61.4517 24.4102 60.6706 24.6618 59.8411 24.7641C59.8411 24.7641 58.287 25.0079 56.4751 24.6618C55.8551 24.5517 55.2833 24.4102 54.7679 24.1585C54.7387 24.1585 54.7246 24.1437 54.7111 24.1294C54.6985 24.1162 54.6865 24.1035 54.6632 24.1035C54.6632 24.0563 54.6069 24.0563 54.6069 24.0563H54.5666C54.2445 23.9069 53.9868 23.7575 53.6808 23.553C53.0044 23.0969 52.4326 22.6014 51.9092 21.9959C51.2408 21.1309 50.6691 20.0849 50.2987 18.9289C49.9444 17.7729 49.7833 16.5146 49.7833 15.1541C49.7833 13.8487 49.9363 12.5433 50.2906 11.3951C50.6611 10.184 51.1764 9.18528 51.9012 8.27304C52.6259 7.42372 53.5117 6.71595 54.5586 6.21265C55.5249 5.77226 56.6201 5.51274 57.8602 5.45769C58.6977 5.41051 59.4224 5.45769 59.9861 5.55206L60.7511 5.70934C60.7511 5.76439 60.8075 5.76439 60.8477 5.76439C60.9122 5.81944 60.9605 5.81944 61.0088 5.81944C61.1135 5.81944 61.2262 5.88235 61.2262 5.88235C61.5322 5.96099 61.8946 6.11828 62.1925 6.27556C63.2394 6.771 64.1252 7.43158 64.8499 8.34382ZM55.2028 10.4042C54.8404 11.0098 54.5827 11.7726 54.3814 12.559L54.3895 12.5668C54.1828 13.3588 54.1252 14.2427 54.0695 15.0975V15.0975L54.0674 15.1305C54.0674 16.0349 54.1157 16.9393 54.325 17.7414C54.5344 18.5514 54.7921 19.2513 55.1545 19.849C55.5168 20.4624 55.9839 20.9107 56.4993 21.2645C57.0227 21.6106 57.6428 21.7679 58.3272 21.7679C58.9956 21.7679 59.6237 21.6184 60.1391 21.2645C60.6545 20.9107 61.1215 20.4624 61.4758 19.8647C61.8382 19.2513 62.104 18.5514 62.3053 17.7414C62.4663 16.9393 62.5791 16.0349 62.5791 15.1305V14.8317C62.5791 13.9273 62.4663 13.1173 62.257 12.3152C62.0476 11.5131 61.7899 10.8603 61.4275 10.2548C61.0652 9.68858 60.6464 9.24819 60.1391 8.90217C59.6157 8.54829 59.0439 8.40673 58.3675 8.40673C57.683 8.40673 57.071 8.60333 56.5556 8.95722C56.0322 9.30324 55.5652 9.80654 55.2028 10.4042ZM42.9627 5.53633H47.3111V25H42.9627V5.53633Z" fill="white"/>
<path fill-rule="evenodd" clip-rule="evenodd" d="M45.0067 1C43.9064 1 43.0134 1.89813 43.0134 3.00474C43.0134 4.16749 43.9064 5.0576 45.0067 5.00949C46.107 5.00949 47 4.11136 47 3.00474C47 1.89813 46.107 1 45.0067 1ZM18.926 9.17134C19.6436 10.1015 20.1539 11.1681 20.5207 12.3468L20.5366 12.3148C20.8954 13.5016 21.0549 14.7846 21.0549 16.1639C21.0549 17.5512 20.8954 18.8342 20.5446 20.013C20.1778 21.1918 19.6675 22.2743 18.9499 23.1404C18.2323 24.0145 17.3553 24.7281 16.2789 25.2414C15.5613 25.5541 14.7879 25.8107 13.9666 25.915C13.9666 25.915 12.4278 26.1635 10.6338 25.8107C10.0198 25.6984 9.45374 25.5541 8.93547 25.2975C8.88763 25.2975 8.88763 25.2975 8.83979 25.2414C8.83979 25.1932 8.78398 25.1932 8.78398 25.1932H8.74411C8.42518 25.0409 8.17004 24.8885 7.86705 24.68C7.19729 24.2149 6.63119 23.7097 6.11292 23.0923C5.39533 22.2102 4.88504 21.1918 4.51826 19.9649C4.15947 18.7861 4 17.503 4 16.1158C4 14.7846 4.15947 13.4535 4.51029 12.2827C4.87706 11.0478 5.38735 10.0294 6.10495 9.09916C6.82255 8.23312 7.69961 7.51141 8.73614 6.99819C9.69293 6.54913 10.7773 6.2845 12.0052 6.22837C12.8344 6.18026 13.552 6.22837 14.1101 6.3246L14.8676 6.48498C14.8676 6.54111 14.9234 6.54111 14.9633 6.54111C15.0271 6.59724 15.0749 6.59724 15.1228 6.59724C15.2264 6.59724 15.338 6.6614 15.338 6.6614C15.641 6.74159 15.9998 6.90197 16.2948 7.06234C17.3314 7.56754 18.2084 8.24113 18.926 9.17134ZM39.9835 12.3468C39.6167 11.1681 39.1064 10.1015 38.3888 9.17134C37.6712 8.24113 36.7942 7.56754 35.7576 7.06234C35.4626 6.90197 35.1038 6.74159 34.8009 6.6614C34.8009 6.6614 34.6892 6.59724 34.5856 6.59724C34.5377 6.59724 34.4819 6.59724 34.4261 6.54111C34.3783 6.54111 34.3304 6.54111 34.3304 6.48498L33.565 6.3246C33.0069 6.22837 32.2893 6.18026 31.468 6.22837C30.2401 6.2845 29.1558 6.54913 28.199 6.99819C27.1624 7.51141 26.2854 8.23312 25.5678 9.09916C24.8502 10.0294 24.3399 11.0478 23.9731 12.2827C23.6223 13.4535 23.4628 14.7846 23.4628 16.1158C23.4628 17.503 23.6223 18.7861 23.9811 19.9649C24.3479 21.1437 24.906 22.2102 25.5757 23.0923C26.094 23.7097 26.6521 24.2149 27.3299 24.68C27.6329 24.8885 28.2468 25.1932 28.2468 25.1932C28.2468 25.1932 28.2946 25.1932 28.2946 25.2414C28.3288 25.2414 28.3447 25.2575 28.3594 25.2724C28.3722 25.2854 28.3841 25.2975 28.4063 25.2975C28.9245 25.5541 29.4827 25.6984 30.1046 25.8107C31.8986 26.1635 33.4374 25.915 33.4374 25.915C34.2587 25.8107 35.0321 25.5541 35.7497 25.2414C36.8261 24.7281 37.6952 24.0145 38.4207 23.1404C39.1383 22.2743 39.6486 21.1918 40.0154 20.013C40.3662 18.8342 40.5177 17.5512 40.5177 16.1639C40.5177 14.7846 40.3184 13.5016 40.0074 12.3148L39.9835 12.3468ZM27.9677 13.4695C28.175 12.6676 28.4302 11.8898 28.789 11.2723C29.1478 10.6629 29.6102 10.1497 30.1205 9.79681C30.6388 9.43596 31.2527 9.23549 31.9145 9.23549C32.5843 9.23549 33.1504 9.37983 33.6686 9.74068C34.1789 10.0935 34.5856 10.5426 34.9444 11.1199C35.3032 11.7374 35.5583 12.403 35.7656 13.2209C35.9809 14.0389 36.0846 14.8648 36.0846 15.787V16.0917C36.0846 17.0139 35.9809 17.9361 35.8294 18.754C35.6221 19.58 35.367 20.2937 35.0082 20.9191C34.6494 21.5286 34.1869 21.9857 33.6686 22.3465C33.1584 22.7074 32.5524 22.8597 31.8747 22.8597C31.2049 22.8597 30.5989 22.6993 30.0807 22.3465C29.5624 21.9857 29.0999 21.5286 28.7411 20.9031C28.3744 20.2937 28.1192 19.58 27.9119 18.754C27.7126 17.9361 27.6568 17.0139 27.6568 16.0917C27.7126 15.2096 27.8162 14.2955 27.9757 13.4775L27.9677 13.4695ZM8.56073 13.4695C8.76006 12.6676 9.0152 11.8898 9.374 11.2723C9.7328 10.6629 10.1953 10.1497 10.7135 9.79681C11.2238 9.43596 11.8298 9.23549 12.5075 9.23549C13.1773 9.23549 13.7434 9.37983 14.2616 9.74068C14.764 10.0935 15.1786 10.5426 15.5374 11.1199C15.8962 11.7374 16.1513 12.403 16.3586 13.2209C16.5659 14.0389 16.6775 14.8648 16.6775 15.787L16.6616 16.0917C16.6616 17.0139 16.5659 17.9361 16.4065 18.754C16.2071 19.58 15.944 20.2937 15.5852 20.9191C15.2344 21.5286 14.7719 21.9857 14.2616 22.3465C13.7513 22.7074 13.1294 22.8597 12.4676 22.8597C11.7899 22.8597 11.176 22.6993 10.6577 22.3465C10.1474 21.9857 9.68496 21.5286 9.32616 20.9031C9.00723 20.3979 8.76803 19.6842 8.55275 18.8182C8.34545 17.9922 8.28963 17.054 8.28963 16.1398C8.28963 15.2176 8.34545 14.2955 8.54478 13.4775L8.56073 13.4695Z" fill="white"/>
</g>
<defs>
<filter id="filter0_d" x="0" y="0" width="90" height="39" filterUnits="userSpaceOnUse" color-interpolation-filters="sRGB">
<feFlood flood-opacity="0" result="BackgroundImageFix"/>
<feColorMatrix in="SourceAlpha" type="matrix" values="0 0 0 0 0 0 0 0 0 0 0 0 0 0 0 0 0 0 127 0"/>
<feOffset dy="4"/>
<feGaussianBlur stdDeviation="2"/>
<feColorMatrix type="matrix" values="0 0 0 0 0 0 0 0 0 0 0 0 0 0 0 0 0 0 0.25 0"/>
<feBlend mode="normal" in2="BackgroundImageFix" result="effect1_dropShadow"/>
<feBlend mode="normal" in="SourceGraphic" in2="effect1_dropShadow" result="shape"/>
</filter>
</defs>
</svg>
